<!-- Generated by IcoMoon.io -->
<svg version="1.1" xmlns="http://www.w3.org/2000/svg" width="1024" height="1024" viewBox="0 0 1024 1024">
<title></title>
<g id="icomoon-ignore">
</g>
<path fill="#000" d="M207.163 189.834c-26.782 53.563-41.748 129.182-35.446 172.505 2.363 18.117 18.905 37.809 60.652 76.406 47.262 42.535 74.831 76.406 74.831 92.16 0 4.726-137.846-43.323-144.935-50.412-13.391-13.391-21.268-8.665-13.391 7.089 20.48 37.022 150.449 132.332 150.449 109.489 0-5.514 18.117 7.877 40.172 29.145 44.898 44.111 45.686 41.748 7.089-53.563-11.815-29.145-18.117-52.775-14.178-52.775s25.994 18.117 48.049 40.172c25.994 25.994 29.932 31.508 11.028 15.754-37.022-29.932-49.625-31.508-33.083-2.363 13.391 22.055 48.049 43.323 59.865 36.234 18.117-11.028 62.228 118.154 62.228 183.532 0 43.323-3.151 53.563-19.692 69.317-50.412 51.2-132.332-3.938-118.942-79.557 3.938-16.542 3.151-26.782-1.575-23.631-14.178 8.665-17.329 52.775-5.514 79.557 20.48 50.412 81.92 72.468 129.969 47.262 25.994-13.391 37.809-32.295 51.988-82.708l9.452-35.446 0.788 31.508c2.363 55.926 18.117 8.665 25.206-72.468 7.089-82.708 15.754-103.975 63.803-148.874 42.535-40.96 111.852-78.769 85.071-46.474-5.514 6.302-15.754 11.815-23.631 11.815-11.815 0-70.892 55.926-70.892 66.954 0 4.726 37.022-17.329 56.714-33.871 12.603-10.24 13.391-9.452 6.302 14.966-4.726 14.966-7.877 33.871-7.877 42.535 0.788 13.391 2.363 12.603 12.603-6.302 6.302-11.815 13.391-21.268 15.754-21.268s1.575 3.151-0.788 7.877c-21.268 33.871 108.702-65.378 133.12-102.4 11.028-17.329 18.905-31.508 16.542-31.508-3.151 0-77.194 33.871-100.037 45.686-3.938 1.575-6.302-1.575-6.302-7.089 0-4.726 30.72-38.597 67.742-75.618l68.529-65.378-3.938-62.228c-3.151-51.2-8.665-71.68-32.295-119.729l-29.145-58.289 3.151 110.277c3.151 78.769 1.575 103.188-3.938 84.283-7.089-22.055-22.843-35.446-22.843-18.905 0 3.938-10.24 22.843-23.631 41.748l-22.843 34.658 20.48 8.665 21.268 9.452-25.994 5.514c-14.178 3.151-51.988 17.329-85.071 32.295-32.295 14.966-63.015 26.782-67.742 26.782-5.514 0-24.418 7.089-40.96 15.754l-31.508 14.966 28.357-25.206c15.754-14.178 31.508-32.295 34.658-40.96 9.452-24.418 10.24-100.037 0.788-90.585-3.938 3.938-27.569 7.877-51.988 7.877-26.782 0-50.412 4.726-59.865 11.815-7.877 6.302-12.603 11.815-9.452 11.815s-3.151 8.665-13.391 19.692c-26.782 26.782-25.206 38.597 3.938 23.631 53.563-27.569 65.378-8.665 23.631 39.385-18.117 21.268-31.508 31.508-31.508 24.418s-4.726-12.603-9.452-12.603c-5.514 0-33.083-11.028-61.44-24.418s-65.378-29.145-82.708-34.658c-19.692-6.302-25.206-10.24-14.966-11.028 26.782-1.575 27.569-8.665 3.938-43.323-11.815-17.329-24.418-39.385-27.569-48.049-4.726-12.603-7.089-13.391-12.603-3.938-4.726 6.302-7.877 22.055-7.877 35.446-0.788 23.631-0.788 23.631-8.665 3.938-5.514-12.603-4.726-36.234 0.788-70.892 5.514-28.357 7.877-70.892 6.302-94.523l-2.363-43.323-25.206 51.988zM446.622 521.452c-2.363 6.302-4.726 3.938-4.726-4.726-0.788-8.665 1.575-13.391 3.938-10.24 2.363 2.363 3.151 9.452 0.788 14.966z"></path>
<path fill="#000" d="M858.585 200.074c0 2.363 5.514 18.117 11.815 33.871 6.302 14.966 11.815 44.111 11.815 64.591l0.788 36.234 15.754-30.72c13.391-25.206 14.966-33.871 7.089-51.988-8.665-21.268-47.262-63.803-47.262-51.988z"></path>
<path fill="#000" d="M147.298 232.369c-22.843 29.145-26.782 54.351-11.815 86.646 12.603 28.357 22.055 24.418 16.542-7.089-2.363-15.754 0.788-42.535 8.665-64.591 7.089-20.48 11.815-38.597 10.24-39.385-0.788-1.575-11.815 9.452-23.631 24.418z"></path>
<path fill="#000" d="M896.394 352.098c-6.302 7.877-19.692 27.569-29.145 43.323-9.452 16.542-32.295 41.748-50.412 56.714-33.083 27.569-33.083 28.357-8.665 21.268 55.926-15.754 75.618-35.446 92.16-93.735 6.302-22.055 11.028-40.96 9.452-40.96-0.788 0-7.089 6.302-13.391 13.391z"></path>
<path fill="#000" d="M126.031 359.975c0 18.905 18.905 71.68 29.932 84.283 14.178 15.754 79.557 48.049 85.071 41.748 2.363-2.363-7.089-11.815-20.48-21.268-14.178-10.24-37.022-37.022-51.988-59.865-25.994-40.172-42.535-58.289-42.535-44.898z"></path>
<path fill="#000" d="M623.852 619.126c-14.966 11.815-29.932 28.357-33.083 37.809-6.302 15.754-7.089 15.754-7.089-2.363-0.788-10.24-3.151-16.542-6.302-13.391-3.938 3.151-6.302 45.686-6.302 93.735 0 80.345-1.575 92.16-22.055 133.12-12.603 25.206-37.809 59.077-58.289 77.194-45.686 39.385-27.569 41.748 24.418 1.575 70.105-52.775 91.372-122.092 74.043-237.883-3.151-19.692-3.938-29.145-1.575-21.268 5.514 16.542 18.905 10.24 18.905-9.452 0-7.877 11.028-27.569 23.631-44.111 33.871-42.535 32.295-45.686-6.302-14.966z"></path>
<path fill="#000" d="M378.092 612.037c0 3.938 10.24 18.905 23.631 33.871 12.603 14.966 22.843 35.446 23.631 44.898 0 9.452 3.151 18.905 7.089 21.268 7.877 4.726 16.542-32.295 11.028-47.262-4.726-11.815-65.378-60.652-65.378-52.775z"></path>
<path fill="#000" d="M612.825 815.262c-6.302 69.317-22.055 105.551-63.803 151.237l-33.083 37.022 25.994-15.754c68.529-39.385 103.188-129.182 81.132-207.951-3.938-14.178-7.089-5.514-10.24 35.446z"></path>
<path fill="#000" d="M523.028 875.126c-9.452 15.754-69.317 38.597-102.4 38.597-21.268 0-41.748-6.302-60.652-18.905-17.329-11.815-26.782-14.966-23.631-8.665 13.391 37.022 104.763 55.926 150.449 32.295 25.206-13.391 63.015-51.988 50.412-51.988-4.726 0-11.028 3.938-14.178 8.665z"></path>
</svg>
